<svg width="133" height="125" viewBox="0 0 133 125" fill="none" xmlns="http://www.w3.org/2000/svg">
<path d="M118.104 123.948H82.8571C75.207 123.948 69 117.741 69 110.091V74.8442C69 67.1953 75.2059 61 82.8571 61H118.104C125.755 61 131.961 67.1953 131.961 74.8442V110.091C131.961 117.754 125.755 123.948 118.104 123.948Z" stroke="white" stroke-width="2" stroke-miterlimit="10"/>
<circle cx="100.5" cy="92.5001" r="13.4444" stroke="white" stroke-width="2"/>
<path d="M121.344 74.0331C121.344 75.4014 120.234 76.5106 118.866 76.5106C117.498 76.5106 116.389 75.4014 116.389 74.0331C116.389 72.6648 117.498 71.5557 118.866 71.5557C120.234 71.5557 121.344 72.6648 121.344 74.0331Z" fill="white"/>
<path d="M69.375 88.9286H20.5714C9.76657 88.9286 1 80.162 1 69.3571V20.5536C1 9.74985 9.76544 1 20.5714 1H69.375C80.181 1 88.9464 9.74985 88.9464 20.5536V69.3571C88.9464 80.1793 80.1804 88.9286 69.375 88.9286Z" stroke="white" stroke-width="2" stroke-miterlimit="10"/>
<path d="M50.8926 45.0532C54.1783 45.0532 55.8211 43.4104 55.8211 40.1425L55.8569 26.3747C55.8747 23.0889 54.2319 21.4639 50.9461 21.4639C47.6604 21.4639 46.0176 23.1068 46.0176 26.3747L45.9819 40.1425C45.964 43.4104 47.6069 45.0532 50.8926 45.0532ZM49.3033 26.3568C49.3033 25.2675 49.8569 24.7139 50.9461 24.7139C52.0354 24.7139 52.589 25.2675 52.589 26.3568L52.5533 40.1247C52.5533 41.2139 51.9997 41.7675 50.9104 41.7675C49.8211 41.7675 49.2676 41.2139 49.2676 40.1247L49.3033 26.3568ZM67.9104 50.8747V47.9282H60.5533L60.4997 68.5175H67.8569V65.5711H63.4461L63.464 59.6782H67.1426V56.7318H63.464L63.4819 50.8389H67.9104V50.8747ZM67.7497 40.1247L67.7854 26.9997C67.8033 23.7139 66.1604 22.0889 62.8747 22.0889H57.964L57.9104 45.0532H62.8211C66.1069 45.0532 67.7497 43.4104 67.7497 40.1247ZM61.2319 25.3747H62.8747C63.964 25.3747 64.5176 25.9282 64.5176 27.0175L64.4819 40.1425C64.4819 41.2318 63.9283 41.7854 62.839 41.7854H61.1961L61.2319 25.3747ZM54.6783 47.9282H51.7319L51.6783 68.5175H59.0354V65.5711H54.6247L54.6783 47.9282ZM46.1426 56.0175L44.3926 47.9282H41.4461L44.6426 59.6961L44.6247 68.5175H47.5711L47.589 59.6961L50.9997 47.9282H48.0533L46.1426 56.0175ZM38.9997 45.0354C42.2854 45.0354 43.9283 43.3925 43.9283 40.1247L43.964 26.3568C43.9819 23.0711 42.339 21.4461 39.0533 21.4461C35.7676 21.4461 34.1247 23.0889 34.1247 26.3568L34.089 40.1247C34.089 43.4104 35.7319 45.0354 38.9997 45.0354ZM37.4104 26.3568C37.4104 25.2675 37.964 24.7139 39.0533 24.7139C40.1426 24.7139 40.6961 25.2675 40.6961 26.3568L40.6604 40.1247C40.6604 41.2139 40.1069 41.7675 39.0176 41.7675C37.9283 41.7675 37.3747 41.2139 37.3747 40.1247L37.4104 26.3568ZM27.1247 21.4282C23.839 21.4282 22.1962 23.0711 22.1962 26.3389L22.1604 40.1068C22.1426 43.3925 23.7854 45.0175 27.0712 45.0175C30.3569 45.0175 31.9997 43.3747 31.9997 40.1068L32.0176 32.3925H27.1069L27.089 35.6782H28.7319L28.714 40.1068C28.714 41.1961 28.1604 41.7497 27.0712 41.7497C25.9819 41.7497 25.4283 41.1961 25.4283 40.1068L25.464 26.3389C25.464 25.2497 26.0176 24.6961 27.1069 24.6961C28.1961 24.6961 28.7497 25.2497 28.7497 26.3389V27.1604H32.0354V26.3389C32.0354 23.0711 30.4104 21.4282 27.1247 21.4282ZM32.4997 50.8747H35.1426L35.089 68.5354H38.0354L38.089 50.8747H40.7319V47.9282H32.4997V50.8747ZM26.6069 47.9282C23.6604 47.9282 22.1962 49.3925 22.1783 52.3389V53.5175C22.1783 55.6782 23.1426 57.4461 25.1069 58.8211C27.0712 60.1961 28.0354 61.5711 28.0354 62.9461V64.1247C28.0354 65.1068 27.5354 65.5889 26.5533 65.5889C25.5711 65.5889 25.089 65.0889 25.089 64.1247V63.3925H22.1426V64.1247C22.1426 67.0711 23.6069 68.5354 26.5533 68.5354C29.4997 68.5354 30.964 67.0711 30.9819 64.1247V62.9461C30.9819 60.7854 30.0176 59.0175 28.0533 57.6425C26.089 56.2675 25.1247 54.8925 25.1247 53.5175V52.3389C25.1247 51.3568 25.6247 50.8747 26.6069 50.8747C27.589 50.8747 28.0711 51.3747 28.0711 52.3389V53.0711H31.0176V52.3389C31.0176 49.3925 29.5533 47.9282 26.6069 47.9282Z" fill="white"/>
</svg>
